<svg width="49" height="40" viewBox="0 0 49 40" fill="none" xmlns="http://www.w3.org/2000/svg">
<g id="client-logo__pl" style="mix-blend-mode:difference">
<path id="Shape" d="M2.80045 19.2855C1.86697 18.3081 0.884354 17.3795 0 16.451C5.25699 11.2216 10.514 5.99231 15.771 0.714111L18.5714 3.49983C13.3144 8.77802 8.05745 14.0073 2.80045 19.2855Z" fill="white"/>
<path id="Shape_2" d="M7.13474 23.5714L4.28516 20.7368C9.54215 15.4586 14.7991 10.2293 20.0561 5C20.9896 5.97744 21.9722 6.90602 22.8566 7.83459C17.6487 13.015 12.3917 18.2932 7.13474 23.5714Z" fill="white"/>
<path id="Shape_3" d="M24.3432 9.28589L27.1437 12.079C21.8867 17.3221 16.6297 22.6142 11.4219 27.8573L8.57227 25.0153C13.7801 19.7721 19.0863 14.529 24.3432 9.28589Z" fill="white"/>
<path id="Shape_4" d="M15.6505 32.1428C14.7195 31.1679 13.7884 30.2418 12.8574 29.2669L28.6358 13.5714C29.5668 14.5462 30.5468 15.4724 31.4289 16.3985C26.1857 21.6141 20.9426 26.8784 15.6505 32.1428Z" fill="white"/>
<path id="Shape_5" d="M19.9846 36.4287C19.0536 35.4976 18.0736 34.5666 17.1426 33.6356C22.3857 28.3925 27.6288 23.1004 32.8719 17.8572L35.714 20.6993C30.4464 25.9179 25.2032 31.1611 19.9846 36.4287Z" fill="white"/>
<path id="Shape_6" d="M21.4277 37.207C26.6847 31.9639 31.8926 26.6718 37.1496 21.4286C38.1322 22.4087 39.0657 23.3887 39.9992 24.2707C34.7913 29.5138 29.5343 34.757 24.2773 40.0001C23.2947 39.0691 22.3612 38.138 21.4277 37.207Z" fill="white"/>
<path id="Shape_7" d="M30 2.79306L32.8005 0C38.0574 5.24312 43.3144 10.5352 48.5714 15.7784L45.771 18.5714C40.514 13.3773 35.257 8.08519 30 2.79306Z" fill="white"/>
<path id="Shape_8" d="M44.2863 20.7784C43.3996 21.7094 42.4144 22.6404 41.4784 23.5714C36.2567 18.3283 30.9858 13.0362 25.7148 7.79306L28.5227 5C33.7444 10.2431 39.0153 15.5352 44.2863 20.7784Z" fill="white"/>
</g>
</svg>
