<svg width="1233" height="1348" viewBox="0 0 1233 1348" fill="none" xmlns="http://www.w3.org/2000/svg">
<g opacity="0.2">
<path d="M472.288 718.746L472.641 719.099L472.995 718.746L1100.51 91.2331L1100.87 90.8795L1100.51 90.526L943.634 -66.3536L943.28 -66.7071L942.927 -66.3536L315.408 561.159L315.055 561.513L315.408 561.866L472.288 718.746Z" stroke="#EFEAEC"/>
<path d="M1597.3 535.065L1596.94 534.711L1596.59 535.065L969.07 1162.6L968.717 1162.95L969.07 1163.31L1125.95 1320.19L1126.3 1320.54L1126.66 1320.19L1754.18 692.652L1754.53 692.298L1754.18 691.945L1597.3 535.065Z" stroke="#EFEAEC"/>
<path d="M1.64645 874.963L1.29289 875.317L1.64645 875.67L158.526 1032.55L158.88 1032.9L159.233 1032.55L316.113 875.67L316.466 875.317L316.113 874.963L159.233 718.083L158.88 717.73L158.526 718.083L1.64645 874.963Z" stroke="#EFEAEC"/>
<path d="M1099.81 404.301L1099.45 404.654L1099.81 405.008L1256.69 561.887L1257.04 562.241L1257.39 561.887L1414.27 405.008L1414.63 404.654L1414.27 404.301L1257.39 247.421L1257.04 247.068L1256.69 247.421L1099.81 404.301Z" stroke="#EFEAEC"/>
<path d="M472.288 1346.3L472.641 1346.65L472.995 1346.3L1100.51 718.782L1100.87 718.429L1100.51 718.075L943.634 561.195L943.28 560.842L942.927 561.195L315.408 1188.71L315.055 1189.06L315.408 1189.42L472.288 1346.3Z" stroke="#EFEAEC"/>
</g>
</svg>
